<?xml version="1.0" standalone="no"?>
<!DOCTYPE svg PUBLIC "-//W3C//DTD SVG 20010904//EN"
 "http://www.w3.org/TR/2001/REC-SVG-20010904/DTD/svg10.dtd">
<svg version="1.0" xmlns="http://www.w3.org/2000/svg"
 width="450.000000pt" height="338.000000pt" viewBox="0 0 450.000000 338.000000"
 preserveAspectRatio="xMidYMid meet">
<metadata>
Created by potrace 1.11, written by Peter Selinger 2001-2013
</metadata>
<g transform="translate(0.000000,338.000000) scale(0.100000,-0.100000)"
fill="#000000" stroke="none">
<path d="M0 2960 c0 -231 4 -420 8 -420 5 0 35 9 68 20 32 11 71 20 85 20 14
0 34 9 44 20 10 11 24 20 32 20 7 0 12 5 11 12 -3 14 49 21 57 7 4 -5 -2 -6
-11 -2 -13 5 -15 3 -9 -8 6 -11 5 -12 -6 -1 -13 12 -38 18 -26 5 4 -3 1 -13
-6 -21 -10 -13 -9 -14 2 -7 11 6 13 4 7 -11 -16 -40 -21 -102 -15 -189 l5 -90
2 120 c3 158 8 169 90 173 38 2 62 -1 62 -8 0 -6 30 -9 83 -8 l82 2 -75 3
c-72 4 -106 16 -94 34 3 5 -7 4 -21 -1 -23 -9 -26 -8 -23 7 2 10 12 19 23 22
11 2 22 7 25 12 3 4 44 18 90 29 47 12 94 26 105 30 38 17 100 30 142 30 24 0
63 5 88 12 38 10 48 10 54 -1 7 -11 21 -11 73 -2 36 6 89 12 119 13 l54 1 -45
6 c-32 5 0 9 113 15 132 7 177 5 272 -10 63 -9 112 -21 109 -26 -3 -4 2 -8 10
-8 9 0 16 5 16 10 0 6 18 10 39 10 22 0 43 -4 46 -10 3 -5 34 -10 68 -11 41
-1 54 -3 37 -8 l-24 -7 29 -11 c17 -7 71 -15 120 -19 50 -4 84 -9 77 -12 -14
-5 93 -46 167 -64 27 -6 39 -13 31 -18 -8 -5 -7 -9 5 -14 23 -8 27 -8 20 4 -4
6 1 7 11 3 12 -4 14 -8 6 -11 -10 -3 -10 -7 0 -20 12 -14 10 -14 -10 -3 -13 7
-26 11 -28 8 -7 -7 49 -27 66 -24 8 1 21 7 29 11 11 7 13 5 9 -6 -4 -8 0 -15
8 -15 7 0 11 4 8 8 -8 14 17 22 29 9 9 -10 9 -11 0 -6 -18 10 -16 -6 3 -30 8
-10 13 -14 10 -7 -10 19 7 22 34 6 14 -8 18 -12 9 -10 -19 6 -19 -14 -2 -53 7
-14 15 -46 18 -73 3 -26 10 -45 16 -42 5 4 9 -5 9 -18 0 -31 59 -94 85 -91 41
6 61 6 83 1 12 -3 22 -1 22 5 0 7 4 7 13 0 6 -5 22 -8 35 -6 16 3 22 -1 22
-15 0 -11 -8 -22 -17 -24 -15 -4 -15 -5 -2 -6 9 0 24 9 35 21 10 12 13 18 7
14 -7 -4 -13 -2 -13 3 0 12 9 14 58 13 22 -1 32 3 32 13 0 8 11 17 25 21 14 3
23 10 20 14 -3 5 29 6 70 3 42 -3 75 -2 75 3 0 14 98 10 112 -4 7 -7 17 -12
24 -12 15 0 27 -25 32 -66 1 -7 14 -19 28 -29 15 -9 23 -12 20 -6 -4 6 -2 11
3 11 6 0 11 -5 11 -11 0 -5 15 -23 32 -40 18 -16 29 -29 24 -29 -5 0 -2 -10 6
-22 25 -42 22 -84 -8 -110 -100 -84 -96 -76 -99 -168 -5 -118 20 -250 47 -250
5 0 8 -6 8 -14 0 -8 11 -17 25 -20 26 -7 34 -31 13 -39 -10 -3 -8 -9 5 -24 9
-11 17 -28 16 -39 -1 -15 -3 -14 -10 6 -6 19 -8 12 -5 -27 2 -31 9 -58 19 -68
10 -9 17 -23 17 -31 0 -8 5 -14 10 -14 6 0 10 -6 10 -14 0 -8 7 -21 15 -29 12
-13 15 -55 15 -242 1 -215 5 -255 31 -275 4 -3 4 -76 1 -162 -4 -131 -7 -158
-20 -158 -12 0 -14 11 -9 58 3 34 2 49 -3 37 -5 -11 -9 -37 -9 -57 -1 -21 -6
-38 -12 -38 -6 0 -10 -18 -9 -42 3 -68 2 -76 -10 -58 -7 11 -10 6 -10 -20 0
-19 -9 -53 -20 -75 -18 -39 -18 -40 1 -43 23 -4 25 -25 4 -46 -8 -8 -15 -26
-15 -40 0 -14 -4 -26 -9 -26 -5 0 -14 -12 -19 -27 -10 -27 -10 -26 -11 14 -1
23 4 43 10 45 6 2 9 15 7 28 -3 21 -7 16 -21 -27 -10 -28 -24 -54 -32 -57 -7
-2 -19 -14 -25 -25 l-11 -21 666 0 665 0 0 1690 0 1690 -2250 0 -2250 0 0
-420z m2775 -495 l0 -110 -67 0 c-82 0 -95 18 -18 24 l55 5 -55 5 c-30 3 -55
11 -55 16 0 6 25 13 55 16 l55 6 -51 1 c-37 2 -54 7 -58 18 -5 13 -1 14 22 9
21 -4 33 -1 47 15 18 20 18 20 -8 20 -22 0 -27 5 -27 24 0 19 -4 23 -19 19
-14 -4 -18 0 -16 19 1 13 3 24 4 26 0 2 31 2 69 0 l67 -3 0 -110z m1209 28
c14 -27 25 -41 26 -32 0 9 9 28 21 43 19 24 26 26 105 26 96 0 99 -3 98 -78
-1 -49 -24 -85 -74 -119 -31 -22 -97 -33 -86 -14 3 4 -5 6 -17 4 -27 -5 -80
27 -102 61 -22 33 -29 94 -16 129 6 15 13 27 16 27 2 0 16 -21 29 -47z m-509
-507 c18 -13 18 -14 -3 -41 -20 -25 -20 -29 -7 -48 17 -24 20 -89 5 -117 -12
-22 -56 -55 -87 -64 -22 -7 -21 -4 13 68 20 41 34 80 32 86 -2 6 -23 -35 -48
-90 -25 -55 -46 -96 -48 -90 -2 5 -18 10 -35 10 -51 0 -62 12 -42 44 23 35 12
44 -26 22 -40 -24 -54 -11 -44 40 15 83 135 160 207 135 17 -6 32 -11 32 -11
1 0 0 16 -2 35 -4 29 -1 35 15 35 11 0 28 -6 38 -14z m688 -52 l37 -7 0 -92
c0 -101 -7 -136 -21 -113 -7 10 -9 9 -9 -5 0 -10 -4 -16 -9 -13 -5 4 -11 1
-13 -5 -3 -9 -25 -9 -89 1 -46 8 -92 13 -101 12 -16 -1 -18 11 -18 108 l0 109
63 4 c34 2 76 4 92 5 17 1 47 -1 68 -4z"/>
<path d="M1105 2613 c-11 -2 -44 -9 -72 -14 l-53 -10 0 -129 0 -128 30 -7 c16
-4 28 -11 27 -16 -2 -8 25 -26 74 -49 8 -5 23 -3 33 2 16 9 17 7 11 -12 l-7
-22 21 21 c18 18 25 19 42 10 12 -6 19 -7 15 -1 -3 5 5 17 19 26 14 9 25 23
25 31 0 7 10 15 23 17 21 3 22 7 25 131 l3 127 -71 0 c-54 0 -72 4 -76 15 -6
15 -28 17 -69 8z m200 -153 l0 -115 -67 -3 c-56 -2 -68 0 -68 13 0 11 13 15
58 17 l57 2 -57 3 c-74 5 -76 23 -2 23 34 0 53 4 49 10 -3 6 -28 10 -56 10
-69 0 -62 20 9 22 l57 2 -57 3 c-32 2 -58 8 -58 13 0 6 26 11 58 12 l57 2 -57
3 c-42 3 -58 8 -58 18 0 11 15 15 58 17 l57 2 -57 3 c-32 2 -58 8 -58 13 0 6
26 11 58 12 l57 2 -57 3 c-43 3 -58 8 -58 19 0 12 13 14 68 12 l67 -3 0 -115z"/>
<path d="M1835 2613 c-11 -2 -44 -9 -72 -14 l-53 -10 0 -89 c0 -61 -4 -90 -12
-94 -10 -5 -10 -7 0 -12 6 -3 12 -17 12 -30 0 -18 -4 -23 -12 -18 -9 5 -9 2 1
-9 7 -9 11 -17 7 -17 -3 0 3 -9 14 -20 11 -11 25 -20 31 -20 5 0 7 -4 4 -10
-15 -24 198 16 221 41 9 11 27 19 40 19 13 0 25 4 28 8 3 5 8 59 12 120 7 115
-1 150 -33 138 -7 -3 -13 -2 -13 3 0 4 -22 5 -50 1 -38 -5 -50 -3 -50 7 0 13
-32 16 -75 6z m205 -153 l0 -120 -70 0 c-56 0 -70 3 -70 15 0 9 9 15 25 15 14
0 25 5 25 10 0 6 -11 10 -25 10 -14 0 -25 5 -25 10 0 6 11 10 25 10 14 0 25 5
25 10 0 6 -11 10 -25 10 -14 0 -25 5 -25 10 0 6 11 10 25 10 14 0 25 5 25 10
0 6 -11 10 -25 10 -14 0 -25 5 -25 10 0 6 11 10 25 10 14 0 25 5 25 10 0 6
-11 10 -25 10 -14 0 -25 5 -25 10 0 6 11 10 25 10 14 0 25 5 25 10 0 6 -11 10
-25 10 -16 0 -25 6 -25 15 0 12 14 15 70 15 l70 0 0 -120z"/>
<path d="M314 1974 c-21 -15 -40 -28 -42 -29 -2 -2 -5 -14 -6 -27 -2 -12 -6
-42 -10 -66 -7 -36 -4 -52 20 -97 15 -30 38 -62 52 -71 33 -22 144 -21 178 0
35 24 30 39 -11 34 l-35 -4 27 22 28 23 -40 -9 c-59 -14 -76 -11 -31 5 46 16
52 24 66 92 8 38 8 58 0 73 -12 22 -22 27 -19 8 3 -21 -12 -47 -24 -42 -7 2
-18 -4 -25 -14 -10 -13 -23 -16 -53 -14 -21 2 -39 7 -39 11 0 13 24 31 40 31
12 -1 11 -4 -4 -15 -11 -8 -15 -15 -10 -15 12 0 34 21 34 32 0 4 -9 8 -19 8
-26 0 -36 17 -21 35 16 19 -3 20 -22 2 -15 -15 -70 -29 -62 -16 3 5 14 9 25 9
11 0 23 8 26 18 4 9 14 22 22 29 30 24 -7 13 -45 -13z"/>
<path d="M1502 1560 c-21 -23 -36 -76 -25 -93 3 -5 1 -7 -4 -4 -6 4 -13 -10
-17 -35 -4 -22 -16 -53 -26 -68 -11 -16 -20 -33 -20 -40 0 -7 -6 -24 -14 -38
-55 -107 -62 -167 -22 -194 34 -23 128 10 156 55 15 25 15 94 0 112 -12 14
-20 214 -10 220 4 3 10 19 12 37 3 18 7 39 9 47 7 23 -18 23 -39 1z"/>
</g>
</svg>
