<?xml version="1.0" standalone="no"?>
<!DOCTYPE svg PUBLIC "-//W3C//DTD SVG 20010904//EN"
 "http://www.w3.org/TR/2001/REC-SVG-20010904/DTD/svg10.dtd">
<svg version="1.0" xmlns="http://www.w3.org/2000/svg"
 width="900.000000pt" height="670.000000pt" viewBox="0 0 900.000000 670.000000"
 preserveAspectRatio="xMidYMid meet">
<metadata>
Created by potrace 1.11, written by Peter Selinger 2001-2013
</metadata>
<g transform="translate(0.000000,670.000000) scale(0.100000,-0.100000)"
fill="#000000" stroke="none">
<path d="M6127 6233 c-14 -16 -35 -49 -47 -75 -15 -34 -27 -48 -40 -48 -41 0
-678 -60 -692 -65 -8 -3 -21 8 -32 30 -20 36 -82 82 -150 110 -35 15 -56 14
-314 -10 -312 -30 -333 -36 -387 -113 l-30 -44 -3 -311 c-4 -401 0 -412 147
-463 l71 -25 220 16 c121 8 236 15 255 15 l35 0 0 -108 c0 -147 16 -197 79
-255 51 -45 139 -79 244 -93 26 -4 47 -10 47 -14 0 -4 -11 -5 -25 -2 l-25 4 0
-128 c0 -71 -3 -147 -7 -169 l-6 -40 -13 35 c-12 33 -13 31 -13 -49 -1 -77 0
-82 16 -70 9 8 5 -2 -9 -21 -40 -54 -56 -92 -64 -149 -8 -59 -35 -86 -53 -52
-6 10 -32 30 -58 42 -43 22 -64 24 -215 27 -93 2 -168 2 -168 1 0 -2 7 -22 15
-44 8 -22 14 -57 15 -78 l0 -38 235 7 235 7 0 -182 0 -181 -202 -1 c-130 0
-216 -4 -238 -12 l-35 -12 -6 -80 c-3 -44 -6 -63 -7 -42 -1 20 -5 36 -9 36
-29 -5 -42 4 -46 29 -2 15 -5 -6 -6 -45 -1 -81 -28 -166 -43 -139 -7 13 -15 9
-44 -24 -21 -23 -52 -45 -73 -51 -23 -6 -139 -9 -323 -7 -271 3 -288 4 -314
24 -15 11 -37 33 -48 48 -20 26 -21 44 -26 369 l-6 342 -2 -334 c-2 -323 -1
-336 19 -379 13 -26 38 -54 62 -70 l41 -27 340 0 c188 0 353 3 369 8 l27 7 0
-135 0 -135 125 0 124 0 3 93 c3 85 5 92 24 95 18 3 23 12 28 62 13 112 97
168 189 124 44 -21 67 -61 74 -129 5 -45 9 -54 27 -57 20 -3 21 -8 21 -138 l0
-135 -57 -3 c-32 -2 -58 -5 -58 -8 0 -3 6 -17 14 -32 7 -15 17 -46 21 -69 7
-42 6 -43 -22 -45 -15 0 -34 -1 -40 -1 -7 1 -13 -7 -13 -16 0 -13 8 -16 40
-13 35 4 40 2 40 -17 0 -20 5 -21 94 -21 172 0 244 28 286 110 18 35 20 59 20
245 l0 205 283 0 c155 0 292 3 305 6 l22 6 0 -200 c0 -199 0 -200 28 -252 21
-41 39 -59 79 -82 l52 -30 363 -1 c363 -2 363 -2 411 22 53 26 93 71 101 116
3 17 3 24 0 18 -3 -7 -11 -13 -17 -13 -7 0 -23 -19 -36 -42 -20 -36 -25 -39
-33 -24 -9 16 -12 16 -37 -7 -14 -14 -39 -31 -54 -36 -31 -12 -331 -13 -573
-3 -145 7 -152 8 -187 35 -69 52 -76 79 -78 301 l-2 196 40 38 c50 46 73 91
83 157 6 42 8 44 9 15 0 -19 -3 -50 -8 -68 -6 -20 -6 -30 0 -27 5 4 9 14 10
23 0 10 5 6 11 -10 12 -34 25 -36 30 -5 3 19 10 23 58 27 50 5 53 6 33 18 -12
6 -32 12 -45 12 -20 0 -18 2 11 18 31 17 36 17 51 3 9 -9 15 -19 13 -23 -2 -4
2 -10 8 -14 8 -5 8 -9 -1 -14 -7 -4 -9 -13 -6 -19 9 -14 346 -16 346 -1 0 6
-44 10 -112 10 -62 0 -120 5 -128 10 -13 8 -13 10 2 10 11 0 16 6 13 20 -2 11
2 26 8 33 7 7 13 19 15 27 6 30 25 70 33 70 5 0 19 22 31 49 l23 50 55 4 c30
2 -61 3 -203 3 -165 -1 -257 3 -258 9 0 6 -2 30 -5 55 -2 25 -2 109 2 187 l6
141 81 6 c45 3 151 7 235 8 l152 3 0 -110 c0 -131 17 -178 79 -223 52 -38 139
-48 389 -44 l182 2 0 -253 c0 -252 0 -253 26 -305 19 -39 38 -59 72 -80 l47
-27 350 0 c335 0 352 1 389 21 22 11 54 37 70 58 l31 38 3 160 c2 112 0 158
-7 153 -6 -3 -11 -27 -12 -53 0 -35 -3 -42 -9 -27 -5 11 -10 16 -11 10 -1 -5
-5 10 -8 35 l-6 45 -80 17 c-44 9 -111 20 -150 23 -38 3 -89 8 -112 11 l-43 5
30 60 c28 54 48 80 33 43 -5 -14 7 -15 112 -9 64 4 134 13 155 20 35 12 39 12
43 -3 2 -9 7 14 12 51 14 123 -11 194 -83 235 -37 21 -52 22 -235 22 -168 0
-196 2 -201 16 -3 9 -6 132 -6 274 l0 257 75 5 c93 6 158 37 199 96 25 35 31
54 33 110 2 49 0 59 -6 37 -18 -68 -39 -105 -56 -99 -10 4 -28 -4 -48 -23 -56
-53 -96 -65 -126 -39 -9 7 -37 26 -63 41 l-48 27 20 -44 c24 -53 27 -80 5 -52
-14 17 -15 6 -10 -121 2 -77 7 -166 11 -197 4 -39 2 -58 -5 -58 -7 0 -11 -24
-11 -62 l0 -61 -20 23 c-11 13 -20 34 -20 47 0 14 -6 23 -16 23 -8 0 -12 5 -9
10 9 14 -8 12 -24 -2 -10 -9 -12 -9 -7 -1 9 17 -45 12 -64 -6 -13 -13 -16 -10
-21 30 -4 26 -7 -10 -7 -88 -2 -120 -4 -133 -21 -143 -25 -13 -413 -14 -426
-1 -6 6 -9 71 -7 151 l3 141 30 6 c27 5 29 8 29 54 0 81 -65 130 -139 105 -49
-16 -74 -55 -75 -115 -1 -47 -3 -51 -25 -51 -22 0 -23 2 -19 59 7 102 81 169
174 158 75 -8 134 -71 134 -142 0 -17 5 -25 18 -25 24 0 89 55 109 93 9 18 18
27 20 21 2 -7 31 -9 81 -6 62 3 80 7 91 23 7 10 20 19 28 19 8 0 12 4 9 8 -2
4 27 8 65 7 l69 0 0 55 c-1 70 -27 129 -76 166 l-37 29 -151 0 c-165 0 -547
-14 -557 -21 -4 -2 -8 49 -8 114 -2 126 -10 179 -34 216 l-16 23 61 7 c34 3
85 6 114 6 l54 0 0 -165 0 -165 43 0 c102 0 413 23 421 31 6 5 2 9 -11 9 -11
0 -26 7 -33 15 -17 21 2 65 29 65 17 0 18 4 9 40 -6 22 -14 40 -19 40 -5 0
-15 12 -24 28 -15 26 -16 26 -9 2 l6 -25 -26 24 c-17 16 -22 27 -15 31 7 5 5
9 -5 13 -17 7 -22 37 -6 37 6 0 10 5 10 11 0 5 -6 7 -12 4 -7 -4 -4 1 7 9 22
19 34 17 49 -7 8 -12 7 -22 -2 -37 -10 -17 -10 -20 5 -20 10 0 25 5 33 10 13
9 13 10 0 10 -12 1 -12 3 3 14 19 15 24 31 5 20 -7 -5 -8 -3 -4 5 6 9 13 8 27
-5 17 -15 19 -15 19 -1 0 9 9 25 21 36 28 25 7 38 -27 16 -25 -16 -25 -16 -15
3 6 11 7 22 4 26 -3 3 -2 6 3 6 5 0 11 11 12 26 1 14 7 35 14 47 11 22 15 53
21 190 2 46 8 72 17 79 12 8 11 9 -3 4 -10 -3 -41 -6 -68 -6 l-49 0 0 -64 c0
-72 -6 -96 -25 -96 -9 0 -14 22 -17 71 -4 83 -12 91 -86 87 -49 -3 -53 -1 -48
17 4 17 2 16 -14 -5 -11 -14 -20 -28 -20 -32 0 -13 -58 -38 -74 -32 -8 3 -17
12 -20 20 -5 12 -9 11 -26 -6 -23 -23 -58 -26 -86 -6 -24 18 -24 87 1 136 24
48 75 100 98 100 10 0 15 5 12 10 -3 6 -17 10 -31 10 -24 0 -24 1 -24 91 0 63
-5 101 -16 125 -21 44 -109 124 -146 131 -15 3 -25 9 -22 14 3 5 -13 9 -35 9
-38 0 -41 2 -41 28 0 19 -3 23 -9 13 -7 -11 -11 -10 -20 5 -10 18 -10 18 -11
-3 0 -12 6 -24 13 -27 10 -5 10 -7 0 -12 -9 -4 -13 -31 -13 -81 0 -74 1 -76
19 -59 17 16 19 15 25 -15 3 -17 6 -70 6 -118 1 -85 1 -86 18 -58 9 15 22 27
29 27 14 0 17 -15 37 -183 16 -128 19 -137 44 -137 41 0 -9 -18 -65 -24 -58
-5 -84 4 -48 18 21 8 19 62 -2 75 -15 9 -16 12 -4 20 11 7 12 22 2 87 -10 71
-30 114 -53 114 -4 0 -8 -48 -9 -107 -1 -60 -4 -117 -7 -128 -7 -21 -32 -32
-32 -14 0 11 -72 8 -120 -6 -19 -5 -22 -4 -10 4 24 17 2 13 -25 -5 -14 -9 -25
-13 -25 -9 0 3 -19 -10 -42 -29 -23 -20 -51 -37 -62 -38 -27 -1 -34 -3 -73
-12 -53 -12 -144 -15 -137 -5 3 6 -11 3 -33 -6 -21 -9 -39 -20 -41 -25 -2 -6
-8 -10 -13 -10 -4 0 -6 7 -3 15 4 8 1 15 -5 15 -10 0 -14 -12 -24 -65 -2 -11
-7 4 -11 33 -7 47 -10 52 -33 52 -13 0 -21 -4 -18 -10 4 -7 -2 -7 -19 0 -27
10 -163 35 -232 43 l-42 5 -4 -57 c-5 -75 -46 -159 -108 -225 -164 -174 -430
-137 -529 73 -23 49 -26 69 -26 156 1 100 3 112 51 197 21 39 107 113 161 139
62 30 174 37 238 15 26 -8 52 -13 58 -9 5 3 7 2 4 -4 -3 -5 7 -20 23 -31 32
-24 45 -28 35 -11 -4 6 2 5 14 -3 12 -7 21 -17 21 -22 0 -4 -7 -2 -17 5 -15
13 -15 12 -5 -6 6 -11 21 -31 33 -45 l21 -25 -16 27 c-25 42 -13 55 57 60 34
3 64 2 67 -3 3 -4 24 -4 47 0 23 5 47 5 54 0 7 -4 17 -5 22 -2 4 3 11 -5 14
-17 4 -15 11 -20 23 -17 16 4 19 -7 25 -108 l7 -112 32 6 31 7 0 202 c0 197 1
202 21 202 11 0 25 5 32 12 15 15 16 55 0 64 -7 4 -8 3 -4 -4 4 -7 -5 -24 -19
-38 l-27 -27 -20 34 c-11 19 -35 50 -54 70 -31 31 -33 37 -20 49 9 7 23 10 32
6 20 -8 57 12 48 25 -3 6 3 13 15 16 29 7 26 23 -4 23 -15 0 -25 -6 -25 -15 0
-17 -36 -39 -54 -32 -6 3 -22 -3 -34 -13 -19 -16 -20 -19 -6 -31 16 -13 44
-73 44 -93 0 -7 -9 -12 -20 -13 -14 -1 -26 10 -41 40 -12 23 -35 57 -52 75
-25 26 -28 32 -13 32 10 0 16 6 14 13 -6 15 -63 36 -105 36 -22 1 -33 6 -33
15 0 27 21 71 48 99 14 15 23 27 21 27 -3 0 -17 -12 -32 -27z m-1166 -291 c42
-21 61 -40 87 -82 32 -55 44 -59 17 -6 -9 16 -13 31 -10 34 3 3 5 0 5 -7 0 -8
6 -11 16 -7 9 4 24 1 32 -6 12 -10 14 -10 8 0 -4 7 -2 12 8 12 36 0 41 -9 38
-76 l-4 -66 -39 4 c-38 3 -39 3 -39 -27 0 -91 -73 -196 -161 -235 -113 -48
-225 -9 -282 100 -26 50 -28 62 -25 130 7 112 59 193 153 236 69 33 129 31
196 -4z m-479 -96 c11 3 43 6 71 6 28 -1 58 4 66 11 10 9 10 3 -3 -22 -10 -18
-20 -56 -23 -85 l-5 -51 -71 -22 c-39 -12 -73 -20 -75 -18 -2 2 0 50 4 107 4
57 10 95 12 85 3 -13 9 -16 24 -11z m1002 -118 c-4 -7 -18 -27 -32 -45 -32
-43 -58 -116 -67 -185 -6 -44 -11 -58 -24 -58 -9 0 -52 -11 -96 -25 -44 -14
-81 -25 -82 -25 -6 0 0 239 7 290 4 30 8 51 9 45 2 -16 264 -13 274 2 10 17
20 17 11 1z m1276 -479 c7 -11 9 -23 6 -26 -6 -6 -206 -21 -293 -22 -49 -1
-53 1 -53 23 0 24 2 24 108 30 59 4 121 8 137 10 76 7 84 6 95 -15z m-35 -333
c118 -63 140 -231 43 -340 -49 -56 -106 -79 -184 -74 l-58 3 -50 -53 -50 -53
-57 57 -58 57 48 56 c38 44 47 60 40 76 -24 60 -2 156 49 215 73 86 180 108
277 56z m-380 -16 l-39 -40 26 0 c15 0 30 -5 34 -11 4 -7 15 -1 30 17 l23 29
-24 -49 c-17 -34 -25 -66 -25 -102 l0 -52 -47 -6 c-27 -4 -90 -18 -141 -32
-52 -13 -96 -24 -99 -24 -3 0 -4 42 -2 93 l4 92 80 13 c44 7 90 14 102 15 12
1 21 4 20 7 -2 5 85 89 93 90 2 0 -14 -18 -35 -40z m-285 -274 l0 -204 -217
-6 c-120 -4 -237 -9 -260 -12 l-43 -5 0 200 c0 184 1 201 18 202 9 1 123 7
252 13 129 7 238 14 243 14 4 1 7 -90 7 -202z m111 -578 c1 -79 4 -127 8 -108
5 29 10 35 31 36 14 0 38 4 53 9 16 4 50 8 77 9 56 1 60 -4 60 -94 0 -39 3
-51 10 -40 5 8 10 11 10 5 0 -5 5 -3 10 5 8 12 10 9 10 -11 0 -30 14 -31 -177
9 l-93 19 0 -63 c0 -52 -4 -68 -21 -85 -63 -63 -190 -64 -206 -1 -8 34 5 53
58 80 32 17 55 22 87 19 l42 -5 0 99 c0 55 -1 99 -2 99 -8 0 -172 -89 -165
-90 4 0 31 12 59 26 41 21 53 23 60 12 7 -10 8 -9 4 5 -3 9 -1 17 4 17 6 0 10
-25 10 -56 l0 -57 -37 7 c-21 3 -69 6 -108 6 -49 0 -65 3 -55 10 17 11 10 13
-14 4 -14 -5 -16 -29 -16 -158 0 -168 -4 -181 -64 -210 -39 -18 -98 -21 -126
-6 -80 43 -12 131 101 132 l49 0 0 177 0 178 142 69 c77 38 150 74 162 81 12
6 24 11 29 12 4 1 8 -63 8 -141z m-737 -102 c13 17 56 28 56 13 0 -4 20 -6 45
-6 25 1 45 -2 45 -7 0 -5 15 -5 33 -1 47 11 138 12 144 2 3 -5 9 -3 14 4 7 11
9 9 10 -6 1 -11 5 -2 9 20 7 39 7 39 9 -15 1 -54 0 -56 -26 -57 -105 -7 -310
-45 -345 -64 -17 -9 -18 -2 -16 98 1 59 3 84 5 54 4 -47 6 -51 17 -35z m2602
-177 c14 -13 27 -42 32 -73 8 -41 10 -44 11 -18 1 25 5 32 21 32 20 0 20 -2
-5 -50 -25 -50 -39 -65 -29 -32 3 9 -1 6 -9 -7 -31 -53 -107 -67 -152 -28 -32
27 -43 88 -25 142 21 64 105 82 156 34z m224 25 c0 -4 -51 -105 -112 -225
-113 -218 -113 -219 -146 -219 l-34 0 100 193 c139 268 132 257 165 257 15 0
27 -3 27 -6z m73 -242 c45 -40 42 -153 -6 -187 -35 -24 -103 -20 -132 10 -21
20 -25 34 -25 80 0 31 5 65 11 76 24 46 110 58 152 21z"/>
<path d="M4770 5901 c-19 -11 -44 -30 -55 -42 l-20 -24 21 17 c16 14 23 15 33
5 10 -10 12 -8 9 7 -1 10 2 21 8 23 7 2 10 -5 7 -19 -2 -13 3 -32 12 -43 9
-11 13 -14 10 -7 -20 39 28 87 71 71 56 -20 26 -90 -42 -99 -30 -4 -40 -10
-42 -26 -2 -17 -12 -24 -40 -28 -88 -16 -92 -17 -92 -39 0 -81 62 -167 132
-185 185 -47 336 200 212 348 -25 29 -53 43 -38 18 4 -7 3 -8 -5 -4 -6 4 -9
12 -6 17 4 5 -6 14 -20 19 -41 16 -116 11 -155 -9z m183 -35 c25 3 31 -3 48
-39 32 -71 29 -77 -46 -77 l-65 0 -2 -87 c-2 -142 -3 -143 -54 -143 l-35 0 3
123 3 122 35 6 c19 4 31 7 27 8 -5 0 3 15 17 32 19 22 25 37 20 53 -6 17 -4
19 7 10 8 -6 27 -9 42 -8z"/>
<path d="M6530 4857 c-48 -31 -70 -75 -72 -138 -2 -99 52 -159 145 -159 94 0
158 62 164 158 5 67 -17 110 -69 142 -47 28 -125 27 -168 -3z"/>
<path d="M5727 5433 l-78 -4 6 -67 c4 -37 10 -69 14 -72 3 -3 38 -4 77 -2 l72
4 6 36 c10 63 7 112 -6 110 -7 -1 -48 -4 -91 -5z"/>
<path d="M1470 5164 c-38 -25 -99 -104 -112 -146 -11 -39 -22 -48 -31 -25 -10
22 -7 -45 18 -478 24 -420 30 -596 15 -460 l-7 60 -1 -70 c-2 -88 25 -545 32
-553 4 -3 6 7 6 23 0 16 2 26 5 23 6 -6 19 -219 100 -1630 73 -1268 68 -1223
145 -1311 93 -105 137 -115 392 -82 624 82 1375 213 1458 255 37 19 100 88
132 145 9 17 22 61 29 97 13 72 10 134 -36 803 -14 193 -26 367 -27 388 l-2
39 175 -2 c257 -1 334 21 378 112 19 40 21 59 19 199 -2 149 -2 151 -8 54 -3
-55 -7 -88 -8 -72 -2 22 -7 27 -27 27 -14 0 -25 -5 -25 -11 0 -5 -4 -8 -9 -4
-5 3 -11 -5 -13 -17 -4 -27 -25 -35 -30 -11 -2 10 -7 -15 -11 -56 -8 -81 -32
-134 -75 -166 -25 -19 -41 -20 -272 -18 -400 4 -431 10 -477 103 -23 43 -23
51 -23 385 0 218 4 354 11 380 14 49 68 102 112 110 18 3 69 7 114 8 45 1 84
4 87 8 3 3 -3 124 -14 270 -11 145 -23 306 -26 357 -4 51 -10 88 -14 82 -5 -8
-9 -6 -14 5 -10 26 -7 73 5 77 7 2 2 116 -16 363 -24 330 -34 417 -36 339 0
-20 -5 -11 -15 29 -8 33 -11 64 -7 70 4 6 1 7 -7 2 -10 -6 -12 -4 -7 9 5 11 3
15 -5 10 -8 -5 -9 -2 -5 9 4 10 2 16 -6 14 -7 -1 -12 6 -12 15 0 17 -11 33
-23 33 -4 0 -24 11 -44 23 -44 27 -107 39 -488 87 -289 36 -716 77 -985 94
-88 6 -189 13 -225 16 -49 4 -71 1 -90 -11z m740 -344 c0 13 1 13 10 0 9 -13
11 -13 20 0 7 11 10 11 10 2 0 -7 4 -11 9 -7 5 3 13 0 17 -6 4 -8 9 -7 15 2 7
11 9 11 9 1 0 -7 4 -10 10 -7 5 3 7 0 4 -8 -3 -9 3 -16 15 -20 14 -3 21 0 21
10 0 8 -4 11 -10 8 -6 -3 -7 1 -3 10 4 12 8 13 13 4 5 -6 17 -9 29 -6 12 3 21
2 21 -3 0 -11 33 -7 42 5 5 6 8 6 8 -1 0 -6 10 -10 23 -10 12 1 32 -1 45 -6
15 -5 22 -4 22 5 0 8 3 9 8 1 4 -6 22 -10 40 -9 25 1 32 -2 27 -13 -3 -9 0
-19 7 -24 8 -5 -1 -6 -22 -3 -19 3 -56 6 -82 7 -25 2 -44 6 -41 11 2 4 9 5 14
2 5 -4 9 -2 9 3 0 5 -9 12 -19 15 -13 3 -21 -1 -24 -15 -3 -11 -10 -17 -15
-14 -9 5 -122 16 -212 20 -43 2 -60 12 -59 34 1 15 2 15 6 0 2 -10 9 -18 14
-18 6 0 8 10 4 23 -5 17 -4 19 4 7 10 -13 11 -13 11 0z m-208 -562 c32 -12 45
-43 52 -128 19 -211 19 -208 2 -235 l-17 -26 -145 3 c-139 3 -144 4 -169 29
-17 16 -27 37 -27 58 -1 18 -7 35 -15 38 -7 3 -13 9 -13 15 0 5 5 6 10 3 6 -4
10 35 10 111 0 161 -3 158 160 149 69 -3 137 -11 152 -17z m1135 -71 c20 -20
24 -39 34 -171 l12 -149 -23 -19 c-20 -16 -35 -18 -129 -13 -138 8 -145 10
-159 40 -7 14 -16 87 -22 162 -9 120 -9 139 6 161 l16 24 122 -7 c105 -6 124
-9 143 -28z m-1509 -234 c-27 -7 -22 -33 13 -64 17 -15 26 -30 21 -33 -6 -3
-12 1 -16 9 -3 8 -13 15 -23 15 -15 0 -16 -2 -3 -10 12 -8 11 -10 -8 -10 -31
0 -75 -41 -66 -63 3 -9 14 -17 24 -17 25 0 82 -25 74 -33 -4 -4 -1 -13 6 -22
10 -12 16 -13 26 -4 8 6 11 15 9 20 -3 4 4 13 15 19 12 6 20 17 17 23 -2 7 -1
21 4 32 6 17 8 17 8 3 1 -12 9 -18 27 -18 27 0 24 19 -4 21 -13 0 -13 2 -3 6
8 3 30 -12 54 -38 22 -24 35 -35 29 -24 -6 12 -6 29 -1 43 11 30 21 28 15 -3
-3 -13 0 -27 5 -30 5 -4 9 8 9 26 l0 32 25 -27 c22 -24 29 -25 27 -5 -1 4 10
7 23 7 19 0 25 -6 25 -23 0 -18 -6 -22 -35 -22 -28 0 -35 4 -35 20 0 11 -3 17
-7 13 -14 -14 -8 -41 12 -58 19 -17 18 -17 -30 -19 -33 -1 -9 -6 70 -14 66 -7
121 -13 123 -14 16 -6 31 -90 37 -209 10 -191 18 -182 -172 -182 -141 0 -144
1 -167 25 -13 14 -28 25 -35 25 -6 0 -11 5 -11 11 0 5 5 7 10 4 11 -7 14 109
4 192 -7 52 -7 52 -29 35 -12 -9 -21 -22 -18 -28 2 -7 -10 -22 -27 -34 -28
-20 -31 -27 -27 -56 3 -19 2 -34 -3 -34 -5 0 -10 10 -12 23 -2 15 -11 23 -29
25 -25 3 -27 7 -33 70 -3 37 -9 129 -12 204 l-7 137 24 -4 c27 -5 62 13 42 21
-16 7 16 44 37 43 11 -1 11 -2 -2 -6z m1009 -276 c12 -12 21 -49 30 -129 27
-248 27 -248 -151 -248 -68 0 -132 3 -141 6 -32 13 -43 58 -50 205 -7 143 -7
147 15 169 21 21 28 22 151 18 105 -3 132 -7 146 -21z m473 -118 c30 -31 31
-31 37 -10 10 38 40 25 51 -21 16 -62 25 -158 13 -133 -5 11 -10 35 -10 53 -1
21 -6 32 -15 32 -8 0 -21 3 -30 6 -12 5 -16 0 -16 -20 0 -15 -11 -38 -25 -51
-34 -35 -78 -33 -116 4 -24 24 -29 38 -29 76 0 90 78 125 140 64z m-1421 -335
c5 4 13 2 16 -4 4 -6 21 -10 39 -8 24 1 41 -6 62 -25 16 -15 38 -27 49 -27 12
0 30 -7 41 -15 13 -10 44 -14 95 -15 114 0 120 -7 135 -161 17 -167 17 -184
-3 -206 -10 -10 -15 -14 -10 -9 12 17 8 56 -5 51 -7 -3 -80 -6 -161 -9 -81 -2
-150 -6 -154 -9 -3 -3 -2 -18 1 -32 9 -34 46 -47 118 -42 46 3 58 1 58 -11 0
-10 -7 -12 -27 -7 -22 5 -25 4 -15 -8 7 -8 9 -17 5 -21 -4 -4 0 -4 10 0 9 3
17 2 17 -3 0 -9 101 -8 127 1 10 4 14 2 10 -8 -3 -7 -1 -18 5 -24 14 -14 -1
-20 -64 -25 -46 -4 -48 -2 -49 22 l-1 26 -7 -25 c-5 -21 -13 -26 -46 -28 -46
-4 -46 -3 -48 -30 -1 -15 -10 -21 -34 -24 -32 -4 -67 16 -43 24 6 2 8 11 5 21
-4 9 -11 14 -16 11 -5 -3 -9 -2 -8 3 1 4 0 24 -4 43 -3 19 -12 76 -18 125 -12
90 -34 135 -65 135 -7 0 -23 15 -35 33 -12 17 -32 43 -44 57 -24 27 -31 95
-13 117 6 7 8 25 5 39 -3 20 2 34 19 51 14 13 22 30 18 36 -3 7 1 4 10 -7 8
-10 19 -15 25 -12z m884 -195 c38 -19 57 -51 57 -97 0 -35 -6 -49 -29 -73 -37
-37 -72 -37 -112 -1 -24 21 -32 38 -36 74 -5 42 -3 50 25 78 32 32 59 37 95
19z m557 -24 c8 -16 18 -31 23 -33 4 -2 7 -28 7 -57 l0 -53 -61 -4 c-44 -2
-63 1 -67 10 -7 20 6 130 19 153 16 30 60 22 79 -16z m28 -467 l-1 -63 -7 60
c-8 68 -13 56 -10 -23 1 -50 -2 -58 -44 -112 -25 -32 -50 -70 -56 -84 -11 -30
-30 -35 -30 -8 0 14 -2 15 -10 2 -15 -23 -12 -57 6 -74 8 -9 11 -16 5 -16 -29
0 -41 49 -47 193 -9 187 -9 187 113 187 l83 0 -2 -62z m-452 21 c12 -13 22
-53 30 -122 20 -156 18 -200 -8 -223 l-22 -19 17 25 c9 13 16 34 16 45 -1 14
-3 16 -6 4 -3 -11 -12 -15 -28 -12 -13 3 -41 -1 -62 -8 -34 -11 -63 -15 -155
-20 -16 -1 -28 -6 -28 -12 0 -5 -8 -6 -17 -3 -13 4 -11 0 6 -14 15 -13 18 -20
9 -20 -8 0 -23 9 -34 21 -16 18 -19 41 -23 169 -2 87 1 155 7 166 11 20 21 23
117 33 124 13 162 11 181 -10z m-648 -144 c15 -18 21 -21 25 -11 3 7 19 15 35
18 28 4 30 2 36 -35 4 -22 5 -42 2 -44 -2 -2 -20 0 -40 5 -33 10 -36 9 -42
-13 -8 -31 -36 -55 -68 -59 -14 -1 -34 -10 -44 -19 -17 -16 -20 -16 -41 7 -19
20 -20 24 -6 36 9 8 15 29 15 56 0 55 26 84 74 84 25 0 40 -7 54 -25z m1107
-555 c11 -16 30 -32 43 -35 12 -3 20 -10 17 -15 -3 -5 7 -9 22 -9 73 -1 81
-10 81 -91 -1 -25 -3 -35 -5 -22 -3 13 -12 22 -23 22 -14 0 -20 -9 -22 -37
l-3 -38 -95 -10 c-52 -5 -95 -14 -95 -20 0 -5 -4 -10 -10 -10 -5 0 -15 -4 -22
-8 -6 -4 -14 -1 -16 5 -3 7 -6 2 -6 -12 -1 -14 6 -37 15 -50 16 -24 16 -24 -1
-8 -24 22 -34 88 -34 225 -1 105 0 113 21 127 12 9 43 16 68 16 39 0 48 -4 65
-30z m-400 -19 c14 -16 19 -51 28 -176 l11 -156 -25 -24 c-21 -20 -41 -26
-145 -37 -130 -15 -155 -11 -172 26 -5 12 -13 90 -17 172 -10 208 -12 207 236
212 54 2 69 -2 84 -17z m-592 -53 c22 -20 26 -37 36 -139 16 -168 15 -201 -9
-227 -12 -12 -23 -22 -26 -22 -3 0 -66 -7 -141 -16 l-136 -16 -24 25 c-24 23
-25 31 -30 188 -7 209 -11 204 157 217 63 5 123 10 132 11 9 0 28 -9 41 -21z
m122 -535 c0 -4 -277 -34 -288 -30 -6 2 18 7 54 11 70 8 129 36 129 61 0 8 3
15 8 15 4 0 14 4 22 10 12 7 12 12 -3 28 -17 19 -17 21 7 47 15 16 26 35 26
43 0 12 3 12 15 2 12 -10 15 -9 17 6 1 13 13 -160 13 -193z m985 -103 c-25 -8
-24 -8 5 -9 38 -2 75 -11 75 -20 0 -32 -32 -41 -232 -68 l-206 -29 -5 41 c-2
22 -3 41 -3 42 2 3 343 51 366 51 l25 0 -25 -8z m-380 -64 c0 -8 2 -20 5 -28
11 -31 -16 -39 -243 -71 l-232 -34 0 33 c0 18 -2 39 -5 46 -5 12 18 17 117 26
68 7 140 12 161 12 21 0 36 4 32 9 -6 10 34 16 118 19 35 2 47 -2 47 -12z
m-485 -87 c4 -22 5 -42 3 -44 -9 -9 -476 -68 -491 -62 -21 8 -23 60 -3 76 12
10 379 67 453 70 29 1 32 -2 38 -40z"/>
<path d="M2491 2994 c-43 -54 -10 -144 52 -144 62 0 90 97 42 145 -32 33 -68
32 -94 -1z"/>
<path d="M1223 5057 c-43 -63 -46 -103 -29 -388 9 -145 25 -424 36 -619 46
-812 46 -816 48 -730 1 30 -16 375 -38 765 -51 889 -50 879 -17 947 30 61 30
70 0 25z"/>
<path d="M5187 3392 c-22 -23 -27 -37 -27 -80 l0 -52 95 0 95 0 0 34 c0 76
-39 126 -98 126 -29 0 -45 -7 -65 -28z"/>
<path d="M4150 3045 l0 -45 -41 0 -40 0 2 -104 3 -104 43 -4 43 -3 0 152 c0
84 -2 153 -5 153 -3 0 -5 -20 -5 -45z"/>
<path d="M4245 2868 c-3 -24 -5 -198 -3 -388 l3 -345 30 -54 c35 -63 96 -107
159 -115 52 -7 471 -26 591 -28 153 -1 261 46 306 134 24 46 38 191 20 202 -7
5 -11 -3 -11 -22 0 -26 -3 -29 -24 -25 -14 3 -27 13 -29 22 -3 9 -5 -7 -6 -36
-1 -68 -15 -103 -41 -103 -13 0 -24 -10 -31 -27 -7 -19 -13 -23 -18 -15 -10
17 -45 24 -110 22 -35 -1 -57 3 -62 12 -6 10 -11 10 -20 1 -7 -7 -32 -10 -63
-7 -97 8 -202 14 -356 20 -85 3 -162 10 -171 14 -10 6 -20 5 -27 -2 -7 -7 -12
-8 -12 -2 0 5 -20 9 -45 9 -25 0 -45 -1 -45 -3 0 -11 27 -52 54 -82 l31 -35
-34 30 c-71 63 -72 72 -74 491 -1 206 -3 374 -4 374 -1 0 -5 -19 -8 -42z"/>
<path d="M1397 1125 c8 -297 18 -398 48 -463 20 -46 22 -52 5 -32 l-19 25 11
-38 c8 -25 28 -52 57 -76 70 -58 118 -79 202 -86 l74 -6 -47 19 c-26 11 -59
29 -74 41 -28 22 -70 29 -58 10 14 -24 -34 11 -69 50 -37 41 -73 103 -89 156
-5 16 -18 154 -28 305 -18 263 -18 267 -13 95z"/>
</g>
</svg>
