<?xml version="1.0" standalone="no"?>
<!DOCTYPE svg PUBLIC "-//W3C//DTD SVG 20010904//EN"
 "http://www.w3.org/TR/2001/REC-SVG-20010904/DTD/svg10.dtd">
<svg version="1.0" xmlns="http://www.w3.org/2000/svg"
 width="800.000000pt" height="490.000000pt" viewBox="0 0 800.000000 490.000000"
 preserveAspectRatio="xMidYMid meet">
<metadata>
Created by potrace 1.11, written by Peter Selinger 2001-2013
</metadata>
<g transform="translate(0.000000,490.000000) scale(0.100000,-0.100000)"
fill="#000000" stroke="none">
<path d="M2281 4802 c-18 -13 -4 -52 19 -52 23 0 32 -13 24 -34 -10 -26 -69
-20 -98 9 -27 27 -59 34 -50 11 4 -9 -7 -17 -33 -23 l-38 -9 33 -17 c17 -10
32 -19 32 -22 0 -2 -29 -3 -65 -2 -36 1 -65 5 -65 10 0 4 -5 7 -11 7 -6 0 -9
-7 -6 -15 4 -8 1 -18 -6 -22 -13 -8 -18 -9 -54 -11 -13 -1 -23 -7 -23 -13 0
-6 7 -8 16 -5 12 5 15 2 10 -10 -3 -8 -6 -19 -6 -24 0 -5 -21 -12 -46 -16 -44
-6 -46 -8 -41 -34 4 -16 0 -36 -9 -48 -10 -15 -12 -27 -5 -45 13 -34 -6 -51
-42 -38 -22 9 -29 7 -41 -10 -29 -42 -47 -9 -48 84 0 24 -5 37 -14 37 -9 0
-14 12 -14 33 0 32 -1 32 -73 50 -39 9 -82 17 -94 17 -12 0 -25 5 -28 10 -4 6
-12 10 -18 8 -14 -2 -84 9 -145 24 -46 11 -72 42 -53 61 14 14 15 30 1 22 -5
-3 -23 1 -39 10 -17 8 -42 15 -58 15 -39 0 -113 -30 -113 -46 0 -8 4 -14 9
-14 17 0 84 -102 71 -110 -8 -5 -8 -14 1 -33 9 -21 20 -27 43 -28 84 -1 126
-15 126 -40 0 -13 -88 -54 -97 -46 -3 4 -1 13 5 19 16 16 -4 38 -34 38 -19 0
-24 -5 -24 -24 0 -26 -21 -47 -28 -28 -5 15 -32 16 -32 1 0 -7 7 -17 16 -24
24 -17 10 -58 -17 -50 -11 4 -19 2 -19 -4 0 -6 6 -11 14 -11 20 0 45 -32 29
-37 -21 -7 -15 -33 7 -33 15 0 20 -7 20 -24 0 -14 4 -36 10 -50 7 -19 6 -26
-3 -26 -7 0 -25 -14 -39 -30 -22 -25 -32 -30 -55 -24 -39 9 -43 13 -43 33 0
22 -19 41 -41 41 -10 0 -24 7 -32 15 -13 13 -17 12 -29 -2 -9 -12 -9 -15 0 -9
17 10 15 -4 -6 -28 -17 -21 -17 -21 4 -3 11 9 23 17 26 17 4 0 5 -8 4 -17 -2
-12 -15 -20 -37 -24 -31 -6 -32 -6 -6 -8 40 -2 97 -28 97 -44 0 -8 -8 -22 -19
-31 -15 -14 -26 -15 -60 -7 -22 5 -41 5 -41 0 0 -4 18 -23 40 -40 22 -18 40
-37 40 -42 0 -5 7 -15 16 -21 23 -17 9 -57 -33 -100 -33 -33 -39 -35 -79 -29
-43 6 -46 4 -95 -46 -48 -49 -72 -59 -126 -52 -7 1 -13 -5 -13 -14 0 -16 40
-21 54 -7 4 4 18 7 32 7 22 1 22 0 7 -17 -9 -10 -22 -18 -30 -18 -7 0 -13 -4
-13 -10 0 -5 -15 -16 -33 -24 l-32 -14 32 -1 c21 -1 36 5 42 17 10 16 10 16
11 -1 0 -11 -10 -19 -29 -23 -26 -6 -28 -9 -18 -25 15 -24 26 -24 43 -1 10 14
16 15 32 5 12 -7 23 -8 29 -2 5 5 33 11 62 14 47 5 58 2 88 -21 19 -14 42 -41
50 -60 9 -19 20 -34 24 -34 13 0 20 18 9 25 -5 3 -10 10 -10 15 0 6 8 3 19 -6
18 -16 18 -17 -2 -55 -16 -31 -27 -39 -48 -39 -14 0 -32 7 -39 15 -7 8 -9 15
-5 15 4 0 2 7 -5 15 -14 17 -35 21 -25 4 10 -15 -24 -49 -49 -49 -46 0 -67 12
-60 33 5 15 3 19 -9 14 -9 -3 -21 1 -27 9 -7 8 -23 14 -37 14 -14 0 -26 7 -29
18 -14 42 -29 62 -47 62 -13 0 -17 5 -13 15 4 10 -1 15 -17 16 -21 1 -20 1 3
8 14 4 -31 6 -100 3 -131 -4 -167 -16 -135 -42 14 -11 20 -11 37 -1 14 8 18 9
13 1 -5 -8 2 -11 21 -10 58 4 60 3 60 -42 -1 -38 3 -45 41 -72 41 -28 43 -29
62 -12 14 13 21 14 26 6 10 -16 -14 -30 -45 -28 -41 3 -90 -32 -90 -63 0 -30
-25 -59 -32 -37 -3 7 -7 8 -11 2 -3 -6 0 -22 8 -37 7 -15 10 -29 5 -32 -5 -3
-16 10 -26 30 -18 38 -28 42 -50 21 -18 -19 -18 -26 2 -26 14 0 15 -2 3 -17
-12 -15 -12 -16 4 -10 9 3 17 2 17 -4 0 -5 -7 -12 -15 -15 -8 -4 -15 -11 -15
-18 0 -6 -9 -17 -20 -24 -11 -6 -17 -18 -14 -26 3 -7 -7 -23 -22 -35 -21 -17
-35 -20 -63 -15 -20 4 -40 10 -45 15 -6 5 -19 9 -29 9 -16 0 -17 -3 -8 -14 15
-18 -1 -30 -28 -21 -10 3 -31 -1 -46 -9 -16 -8 -32 -13 -36 -11 -4 3 -12 -9
-19 -26 -11 -26 -11 -32 1 -40 15 -11 134 -7 160 5 13 6 15 1 11 -24 -9 -61 7
-135 36 -164 42 -42 144 -126 154 -126 4 0 8 -7 8 -15 0 -9 9 -15 25 -15 14 0
26 -4 26 -10 1 -5 3 -14 4 -20 1 -5 3 -16 4 -24 2 -22 39 -30 64 -14 28 17 68
12 60 -8 -3 -8 0 -14 6 -14 6 0 11 6 11 13 0 6 10 -3 21 -20 17 -27 28 -33 55
-33 37 0 43 -15 24 -64 -6 -17 -6 -27 2 -32 7 -5 8 -2 3 7 -5 8 6 -1 23 -20
25 -26 30 -36 21 -47 -8 -10 -8 -14 0 -14 6 0 11 4 11 9 0 5 8 8 17 6 10 -1
12 0 6 2 -33 11 14 79 47 68 11 -4 20 -2 20 4 0 6 -4 11 -10 11 -5 0 -10 5
-10 10 0 16 13 12 44 -15 25 -22 36 -25 72 -19 26 4 44 2 48 -5 12 -19 -3 -47
-26 -48 -11 -1 -24 -7 -28 -13 -3 -6 -26 -12 -50 -15 -39 -4 -59 -16 -60 -37
0 -5 6 -8 14 -8 7 0 34 -20 58 -45 25 -25 50 -45 57 -45 6 0 11 -5 11 -11 0
-6 9 -22 20 -36 11 -14 20 -41 20 -59 0 -19 5 -34 10 -34 6 0 10 6 10 14 0 8
6 17 13 19 7 3 5 6 -5 6 -25 1 -23 31 2 31 11 0 20 5 20 10 0 6 4 10 8 10 5 0
9 -7 9 -15 0 -8 -6 -15 -14 -15 -7 0 -13 -4 -13 -10 0 -5 6 -10 13 -10 9 0 8
-3 -2 -9 -8 -5 -10 -14 -6 -21 5 -8 4 -11 -2 -7 -12 8 -46 -27 -36 -36 3 -4 1
-7 -5 -7 -6 0 -10 -9 -9 -19 0 -11 6 -17 14 -14 7 3 13 0 13 -7 0 -9 8 -7 25
4 23 15 25 15 26 -1 0 -11 3 -13 6 -5 10 24 19 11 16 -20 -3 -25 -2 -30 6 -18
9 13 11 13 11 -1 0 -8 -5 -20 -12 -27 -7 -7 -8 -12 -4 -12 5 0 3 -7 -4 -15
-22 -26 -4 -48 33 -41 23 4 28 3 17 -4 -9 -6 -10 -10 -3 -10 6 0 20 8 29 18
17 16 17 16 11 0 -3 -10 -2 -20 3 -23 6 -4 10 -17 10 -29 0 -15 7 -26 20 -29
11 -3 20 0 20 6 0 6 3 7 6 4 4 -4 20 3 35 14 l29 20 0 -31 c0 -26 3 -30 19
-25 41 13 61 13 62 2 0 -7 5 0 11 16 5 15 16 27 24 27 9 0 13 -4 9 -9 -3 -5 0
-13 6 -17 9 -5 10 0 7 14 -10 37 9 34 31 -4 12 -19 21 -39 21 -43 0 -4 -20 -5
-45 -1 -24 4 -42 3 -39 -2 3 -4 -1 -5 -9 -2 -8 3 -18 1 -22 -5 -3 -6 -11 -11
-17 -11 -6 0 -5 7 3 18 13 15 12 16 -4 3 -9 -7 -16 -21 -15 -30 2 -8 -1 -16
-7 -16 -5 0 -16 -4 -23 -9 -7 -4 -16 -5 -19 -2 -3 3 2 8 11 12 9 3 16 14 15
23 0 10 -2 11 -6 4 -2 -7 -9 -13 -14 -13 -4 0 -6 7 -3 15 4 8 1 15 -5 15 -10
0 -15 -20 -12 -47 1 -7 -4 -13 -11 -13 -10 0 -10 -3 1 -9 8 -5 21 -7 30 -4 14
4 14 3 1 -6 -13 -10 -13 -13 2 -21 30 -18 2 -80 -36 -78 -11 0 -29 -3 -38 -7
-10 -4 -18 -3 -18 2 0 4 10 13 22 18 35 15 34 41 -1 53 -17 6 -31 17 -31 24
-1 8 -5 7 -14 -5 -12 -16 -14 -14 -13 20 1 74 -65 176 -106 165 -5 -1 -6 2 -2
8 3 5 2 10 -4 10 -11 0 -12 -58 0 -66 4 -2 15 -30 24 -61 15 -52 15 -57 -1
-72 -9 -9 -14 -10 -10 -3 6 10 1 11 -18 6 -16 -4 -26 -2 -26 5 0 6 7 11 15 11
13 0 14 2 3 14 -11 12 -14 11 -20 -3 -4 -9 -7 -11 -7 -6 -1 6 -6 3 -11 -5 -5
-8 -10 -10 -10 -3 0 6 -9 9 -20 6 -11 -3 -20 0 -20 6 0 5 -7 8 -15 5 -8 -4
-13 -10 -10 -14 10 -16 -30 -16 -57 0 -32 17 -34 35 -13 87 20 48 19 54 -5 18
-10 -16 -36 -39 -57 -50 -21 -11 -41 -24 -45 -29 -11 -16 15 -45 53 -60 41
-17 49 -34 38 -83 -15 -71 -77 -116 -174 -127 -26 -3 -47 -13 -61 -30 -33 -37
-119 -87 -156 -90 -18 -2 -55 -13 -83 -25 -105 -48 -188 -70 -262 -71 -62 0
-74 -3 -87 -22 -20 -28 -4 -58 30 -58 37 0 116 21 142 38 14 9 66 18 135 23
63 5 140 17 175 29 35 11 77 20 92 20 16 0 31 4 34 9 7 11 53 20 62 12 3 -3 9
-6 12 -6 4 -1 17 -6 28 -13 12 -6 23 -9 26 -7 2 2 9 -4 15 -13 8 -14 6 -27 -7
-55 -18 -37 -18 -37 3 -49 12 -7 25 -11 29 -10 5 1 8 -2 8 -7 0 -5 9 -13 20
-16 11 -3 20 -13 20 -20 0 -24 -68 -123 -100 -147 -33 -24 -37 -40 -15 -58 25
-21 73 -1 133 56 31 30 74 64 94 74 20 11 39 24 42 29 4 5 19 12 35 16 16 3
35 13 42 21 10 12 13 12 25 -3 7 -10 14 -28 14 -41 0 -12 7 -25 15 -28 8 -4
15 -12 15 -19 0 -8 5 -17 11 -21 14 -8 4 25 -23 81 -11 22 -33 74 -50 115 -16
41 -33 80 -38 85 -4 6 -10 37 -12 69 -2 50 0 59 15 62 22 3 77 -63 77 -93 0
-15 -5 -21 -14 -17 -11 4 59 -191 124 -343 6 -14 18 -23 31 -23 15 0 19 -4 15
-16 -3 -8 -2 -13 2 -11 4 3 13 -1 20 -9 42 -46 -131 26 -198 83 -27 22 -31 23
-22 7 12 -22 43 -51 49 -46 2 1 10 -1 17 -5 22 -13 24 -60 3 -75 -16 -12 -17
-18 -5 -61 6 -26 17 -47 22 -47 6 0 21 12 33 26 18 21 22 35 18 68 -2 23 -2
33 1 23 9 -30 104 -203 104 -190 0 19 -31 95 -52 125 -10 14 -18 36 -18 49 0
27 9 21 15 -11 2 -12 9 -27 14 -34 21 -26 61 -146 70 -213 10 -77 5 -125 -10
-101 -5 8 -9 -9 -9 -45 0 -45 -4 -61 -20 -74 -27 -24 -25 -34 15 -73 19 -18
32 -37 29 -41 -2 -4 1 -11 7 -15 8 -5 9 -3 4 6 -9 14 -2 13 72 -14 22 -8 88
-19 145 -24 90 -8 95 -9 38 -10 -78 -2 -201 15 -214 28 -12 12 -29 13 -22 2 3
-5 -15 -8 -39 -7 l-44 2 16 -24 c39 -59 179 -123 270 -123 85 0 176 20 258 57
127 57 185 115 185 184 0 20 -7 42 -15 49 -21 17 -19 31 14 151 35 126 46 179
33 160 -7 -10 -12 -7 -19 14 -8 25 -10 23 -27 -35 -13 -42 -21 -58 -27 -48 -7
10 -9 9 -9 -4 0 -35 -19 -68 -35 -62 -14 6 -15 22 -9 118 6 103 21 169 32 138
7 -22 22 -1 16 24 -7 28 10 32 36 9 16 -14 18 -12 27 34 l10 50 -41 -21 c-57
-29 -134 -48 -158 -39 -19 7 -16 10 21 24 23 9 50 17 61 17 26 0 34 17 14 28
-14 8 -12 10 9 14 15 3 25 2 22 -1 -2 -4 0 -13 5 -20 6 -11 23 -6 82 24 l73
37 -35 -36 c-27 -28 -32 -39 -21 -45 7 -5 9 -10 5 -12 -17 -7 -48 -111 -36
-118 6 -4 12 -21 14 -38 1 -17 5 -31 9 -30 9 3 55 -59 74 -100 19 -41 42 -63
65 -63 28 0 33 34 12 77 -11 21 -26 58 -33 83 -7 25 -28 67 -47 94 l-34 49 17
71 c9 39 23 84 31 100 16 34 18 56 4 56 -5 0 -10 -5 -10 -12 0 -8 -6 -6 -17 5
-16 16 -16 18 6 41 16 17 19 25 9 29 -10 3 -11 9 -1 25 10 16 9 21 -1 25 -8 3
-13 -1 -12 -10 0 -9 -5 -18 -13 -21 -8 -3 -11 0 -7 7 5 7 1 9 -10 4 -13 -5
-16 -3 -11 10 3 8 -1 21 -9 27 -11 10 -14 10 -14 1 0 -7 -5 -9 -10 -6 -7 4 -2
20 12 43 12 20 27 46 32 57 6 11 14 22 17 25 4 3 16 21 29 40 29 48 17 4 -19
-65 -35 -67 -34 -65 -23 -65 12 0 92 173 99 216 5 30 3 34 -15 34 l-21 0 19
56 c19 54 19 58 2 70 -34 27 -47 17 -71 -56 l-22 -70 -83 0 c-90 0 -95 -4 -96
-67 0 -26 -18 -39 -33 -24 -6 6 -23 11 -38 11 -37 0 -43 13 -24 50 l16 30 -44
0 -44 0 -7 -52 c-3 -29 -9 -65 -12 -80 -5 -22 -3 -28 10 -28 9 0 16 -3 16 -6
0 -13 -103 -264 -107 -261 -3 4 59 266 84 352 4 15 2 17 -6 9 -6 -6 -45 -125
-86 -264 -41 -140 -79 -258 -83 -262 -5 -5 -15 -2 -21 6 -10 12 -11 26 -2 63
6 27 13 64 15 83 3 19 17 90 32 157 25 109 30 123 49 123 17 0 24 12 39 68 10
37 20 73 23 80 3 8 -6 12 -26 12 -20 0 -31 -5 -31 -14 0 -8 -5 -16 -11 -18 -6
-2 -28 -91 -50 -198 -51 -258 -48 -247 -60 -229 -8 12 -10 12 -18 0 -12 -18
-42 -7 -35 13 12 31 100 416 94 409 -4 -4 -14 -33 -22 -63 -9 -30 -28 -95 -42
-144 -14 -49 -29 -103 -32 -120 -3 -16 -9 -35 -14 -41 -5 -6 -15 -38 -23 -70
l-14 -60 -8 110 c-4 61 -11 101 -15 91 -11 -31 -16 -4 -31 150 -11 123 -16
145 -36 168 -16 19 -29 25 -42 21 -29 -9 -32 7 -15 66 24 85 23 84 36 71 12
-12 52 3 44 16 -2 4 1 12 8 18 9 8 15 7 24 -2 7 -8 8 -15 2 -19 -6 -3 -10 0
-10 7 -1 9 -3 9 -9 -2 -6 -9 -3 -44 7 -88 11 -52 13 -82 6 -100 -6 -18 -5 -64
2 -132 6 -58 12 -100 13 -93 0 6 19 14 41 18 38 6 40 9 40 41 0 27 4 34 20 34
19 0 20 3 50 120 5 19 19 84 30 145 21 108 29 128 63 153 16 12 17 68 17 913
l0 899 1351 0 1351 0 -7 58 c-8 70 -44 176 -79 237 l-27 45 -1294 0 c-1029 0
-1295 3 -1295 13 0 9 260 12 1273 10 699 -1 1282 -4 1295 -6 12 -2 22 0 22 4
0 5 386 9 860 9 l860 0 0 -625 0 -625 75 0 75 0 0 681 0 681 -31 29 -31 29
-865 0 c-561 0 -862 3 -858 10 11 18 -15 50 -40 50 -31 0 -33 -23 -4 -44 19
-13 9 -14 -107 -13 l-128 2 -1 43 c-1 28 3 42 12 42 7 0 10 7 7 15 -4 8 -2 15
2 15 25 1 36 18 25 38 -9 17 -8 22 8 27 10 3 25 13 33 23 14 15 13 20 -3 47
-13 21 -19 25 -19 13 0 -26 -9 -22 -47 17 -37 38 -57 42 -125 24 -34 -9 -55
-8 -100 4 -41 11 -59 12 -67 4 -9 -9 -17 -8 -31 1 -11 7 -20 8 -20 3 0 -6 -17
-13 -37 -17 -21 -4 -44 -12 -52 -18 -7 -6 -46 -11 -85 -12 -40 -1 -86 -5 -103
-8 -18 -4 -34 -3 -38 3 -4 7 -16 1 -33 -14 -14 -13 -22 -28 -18 -32 4 -4 16 3
27 16 26 32 32 23 12 -17 -13 -26 -18 -30 -30 -21 -7 7 -16 10 -19 7 -2 -3 7
-13 20 -22 16 -10 23 -22 20 -31 -4 -8 -10 -12 -15 -9 -5 3 -12 -1 -15 -9 -8
-22 -39 -27 -68 -11 -14 7 -26 10 -26 7 0 -3 -6 0 -14 6 -41 34 -106 31 -106
-5 0 -23 33 -32 87 -25 40 6 54 4 58 -7 3 -8 12 -11 25 -7 13 4 22 1 26 -9 8
-21 -23 -69 -39 -61 -7 4 -3 -1 7 -9 18 -15 14 -16 -63 -16 -73 0 -81 2 -67
15 8 8 19 15 25 15 17 0 34 41 22 53 -12 12 -41 -8 -41 -28 0 -16 -25 -26 -45
-19 -18 7 -18 9 -3 33 14 23 -3 51 -31 51 -14 1 -14 2 2 14 10 8 14 17 9 20
-6 3 -8 15 -5 26 3 11 0 20 -6 20 -6 0 -21 11 -33 25 -12 14 -28 25 -35 25 -7
0 -13 7 -13 15 0 8 -5 15 -11 15 -6 0 -9 -6 -6 -14 3 -8 -7 -17 -29 -24 -27
-8 -34 -7 -34 4 0 8 5 14 10 14 6 0 10 6 10 13 0 8 11 20 25 27 21 11 27 11
43 -3 10 -10 24 -17 30 -17 7 0 12 -3 12 -7 1 -5 10 -19 21 -33 19 -22 22 -23
30 -7 6 9 17 17 26 17 14 0 13 4 -5 23 -21 22 -21 67 -1 67 13 0 11 68 -3 76
-7 5 -8 3 -3 -6 5 -8 3 -11 -6 -8 -8 3 -19 -2 -26 -11 -8 -11 -12 -12 -13 -3
0 6 -7 12 -16 12 -20 0 -47 27 -35 35 5 3 12 1 16 -5 8 -13 42 -13 50 -1 7 12
-24 43 -38 38 -5 -1 -21 8 -34 21 -16 16 -30 21 -43 17 -11 -4 -20 -2 -20 4 0
6 -4 11 -10 11 -5 0 -10 -11 -10 -24 0 -14 -7 -32 -16 -41 -11 -10 -15 -27
-12 -51 l4 -35 -36 6 c-36 6 -37 6 -35 -26 1 -18 11 -39 22 -48 15 -13 17 -20
9 -33 -8 -13 -6 -22 8 -37 19 -21 19 -21 -1 -21 -12 0 -28 11 -37 25 -14 22
-15 25 -1 25 8 0 15 5 15 10 0 6 -7 10 -15 10 -7 0 -18 7 -23 16 -6 11 -17 15
-31 11 -19 -5 -21 -2 -15 16 3 12 17 34 31 48 35 38 41 121 11 149 -12 11 -25
20 -29 20 -4 0 -11 9 -14 20 -8 25 -56 51 -74 41 -9 -6 -11 -19 -6 -39 8 -39
-5 -46 -49 -28 -30 12 -38 13 -49 1 -11 -11 -23 -4 -73 40 -54 49 -62 54 -97
49 -27 -3 -39 0 -43 11 -4 8 -13 15 -22 15 -9 0 -28 11 -42 25 -29 28 -86 42
-109 27z m-888 -2524 c-2 -5 -11 -4 -19 3 -10 8 -14 8 -14 0 0 -6 5 -11 11
-11 5 0 7 -4 4 -10 -3 -5 -2 -10 4 -10 5 0 13 5 16 10 3 6 13 10 21 10 8 0 12
-4 9 -10 -3 -5 3 -10 14 -10 12 0 21 5 21 10 0 6 5 10 10 10 6 0 10 -7 10 -16
0 -8 4 -13 9 -9 6 3 8 -4 6 -15 -2 -11 0 -18 4 -15 5 2 14 -1 20 -9 9 -11 7
-15 -8 -19 -11 -3 -22 0 -24 7 -3 7 -10 4 -19 -8 -11 -14 -22 -17 -44 -13 -16
3 -23 4 -16 1 6 -3 12 -10 12 -15 0 -13 -26 -11 -38 4 -8 9 -33 12 -79 11 -52
-2 -64 0 -49 8 15 8 16 12 5 20 -10 7 -3 8 21 4 25 -4 31 -3 20 4 -13 9 -7 14
13 11 4 0 7 8 7 20 0 11 4 18 10 14 5 -3 6 -15 0 -29 -7 -20 -6 -23 13 -21 12
1 30 3 40 4 9 0 17 8 17 17 0 8 4 12 10 9 5 -3 7 0 4 8 -4 12 -10 12 -30 3
-13 -6 -24 -17 -24 -23 0 -7 -5 -13 -11 -13 -5 0 -9 8 -8 18 3 36 -1 53 -13
46 -7 -4 -8 -3 -4 4 4 7 14 12 22 12 8 0 14 5 14 10 0 6 8 5 19 -2 11 -7 17
-16 14 -20z m-157 -688 c2 -8 15 -54 30 -102 20 -64 31 -85 39 -78 14 12 25 3
25 -21 0 -12 -5 -16 -15 -13 -17 7 -21 -11 -5 -21 6 -4 8 -10 5 -15 -3 -5 -1
-11 5 -15 5 -3 10 -15 10 -26 0 -44 -19 -3 -65 145 -27 85 -51 153 -53 152 -2
-2 17 -84 42 -183 25 -98 46 -184 46 -191 0 -30 -17 1 -28 50 -7 29 -18 65
-26 79 -7 14 -23 68 -36 120 -22 92 -41 125 -67 115 -7 -3 -13 -2 -13 3 0 5 9
11 20 14 14 3 20 14 20 32 0 20 4 26 15 21 8 -3 15 0 16 7 1 13 31 -49 35 -73z"/>
<path d="M7108 4282 c-351 -609 -572 -991 -589 -1018 l-19 -32 447 -258 c247
-142 460 -266 475 -276 24 -17 45 -18 205 -16 l178 3 32 95 c55 165 68 254 68
455 0 151 -4 197 -24 285 -63 285 -184 506 -390 710 -99 98 -224 197 -272 215
-10 3 -45 -49 -111 -163z"/>
<path d="M2310 2605 l0 -734 1418 -3 c779 -2 1418 -2 1420 -2 9 4 -125 158
-185 213 -168 154 -447 298 -634 325 l-46 7 -17 -50 c-9 -28 -16 -83 -16 -125
l0 -76 -32 0 c-39 0 -98 -32 -182 -99 -87 -69 -135 -91 -199 -91 -63 0 -127
29 -202 91 -75 62 -122 90 -168 97 l-42 7 -6 80 c-3 44 -16 118 -29 164 -20
76 -22 100 -17 230 3 114 9 159 26 205 14 40 21 83 21 133 l0 73 30 0 c40 0
101 31 176 91 100 79 141 99 207 99 71 0 119 -22 212 -96 78 -63 136 -93 178
-94 l27 0 0 -79 c0 -46 6 -93 14 -112 l14 -34 11 27 c39 102 111 402 111 462
l0 26 -1045 0 -1045 0 0 -735z m614 399 c9 -8 16 -21 16 -27 0 -21 -36 -68
-62 -81 -33 -17 -61 -5 -87 37 -39 64 -23 87 60 87 39 0 63 -5 73 -16z m-238
-745 c75 -70 72 -167 -6 -233 -39 -32 -115 -36 -162 -8 -93 55 -94 190 -2 253
42 29 134 22 170 -12z"/>
<path d="M3778 3216 c-46 -17 -75 -35 -154 -98 -63 -49 -135 -87 -166 -88 -15
0 -18 -10 -18 -64 0 -35 -6 -79 -14 -97 -19 -49 -28 -89 -18 -89 15 0 42 110
42 170 0 57 1 60 28 66 45 11 94 39 170 98 117 92 182 113 257 82 18 -8 76
-46 127 -85 54 -42 112 -77 138 -85 l45 -13 6 -79 c4 -43 13 -99 21 -124 13
-39 15 -42 22 -23 4 13 1 37 -9 58 -9 22 -15 67 -15 110 l0 73 -33 6 c-46 9
-99 39 -187 108 -70 54 -145 89 -189 88 -9 -1 -33 -7 -53 -14z"/>
<path d="M3385 2657 c-12 -28 11 -226 35 -296 11 -34 20 -86 20 -121 0 -50 3
-60 18 -60 32 -1 102 -39 174 -96 97 -75 142 -97 203 -97 60 0 125 31 205 98
62 52 143 95 177 95 22 0 23 3 23 74 0 43 6 89 15 109 18 44 19 60 3 55 -20
-7 -36 -70 -37 -145 -1 -71 -2 -73 -28 -79 -45 -11 -82 -33 -178 -106 -155
-117 -209 -116 -367 8 -76 59 -125 87 -170 98 -27 6 -28 9 -28 67 0 34 -9 92
-21 129 -11 38 -24 117 -28 177 -5 70 -10 102 -16 90z"/>
<path d="M435 2386 c-89 -28 -127 -64 -114 -108 5 -20 3 -51 -6 -92 -17 -73
-18 -76 -6 -76 6 0 20 27 32 59 22 61 44 83 124 121 39 18 85 60 85 77 0 15
-32 33 -57 32 -10 0 -36 -6 -58 -13z"/>
<path d="M697 2215 c-36 -27 -52 -33 -65 -26 -9 5 -35 11 -57 12 -34 3 -40 1
-43 -17 -2 -16 6 -23 38 -34 22 -7 40 -18 40 -24 0 -14 -64 -83 -110 -118 -27
-21 -32 -30 -23 -39 14 -14 56 9 86 48 10 13 40 33 65 44 26 12 54 27 63 35
12 11 20 12 42 1 15 -6 27 -15 27 -19 0 -5 9 -8 19 -8 11 0 22 -4 25 -9 3 -4
16 -6 29 -4 18 4 30 -3 46 -22 11 -15 21 -23 21 -17 0 6 -5 14 -11 17 -7 5 -3
14 10 26 21 20 27 31 13 27 -4 -2 -8 2 -10 7 -3 9 -35 26 -57 30 -5 0 -26 5
-47 9 l-36 8 24 36 c31 45 28 66 -11 70 -21 1 -44 -8 -78 -33z"/>
<path d="M5266 1813 c4 -94 11 -144 26 -186 11 -32 22 -56 24 -54 5 5 7 347 3
351 -2 2 -16 6 -31 10 l-27 6 5 -127z"/>
<path d="M1697 1739 c-34 -38 -51 -79 -27 -64 13 8 2 -104 -16 -163 -11 -37
-10 -44 2 -49 21 -8 23 -3 44 74 10 37 27 86 39 108 24 45 26 80 7 113 l-12
23 -37 -42z"/>
<path d="M335 1704 c-27 -9 -55 -20 -60 -24 -6 -5 -29 -10 -52 -11 -23 -2 -40
-6 -38 -9 2 -3 64 -6 137 -5 112 0 139 3 173 20 22 11 40 25 40 30 0 17 -145
16 -200 -1z"/>
<path d="M4180 1691 c-35 -5 -45 -10 -45 -24 0 -10 -7 -24 -15 -30 -32 -25
-60 -71 -60 -98 0 -22 -5 -29 -20 -29 -11 0 -20 -4 -20 -10 0 -6 -29 -10 -66
-10 -63 0 -65 1 -58 22 3 12 16 30 28 41 23 21 0 12 -25 -10 -14 -11 -18 -11
-29 2 -11 13 -10 14 3 9 10 -3 20 2 27 15 8 16 8 21 -3 21 -9 0 -13 12 -11 41
2 43 -7 42 -30 -3 -7 -12 -20 -22 -30 -21 -12 1 -16 -4 -11 -15 3 -8 0 -19 -7
-24 -10 -6 -10 -10 2 -17 18 -12 13 -17 -24 -27 -21 -5 -27 -4 -22 5 4 6 1 14
-8 17 -21 8 -28 34 -14 52 11 13 10 15 -5 9 -10 -4 -20 -7 -21 -7 -2 0 -1 -25
2 -55 l4 -55 -628 0 -629 -1 -51 -79 -51 -80 1483 0 1484 0 0 80 0 80 -269 0
c-208 0 -301 4 -412 19 -208 28 -224 29 -224 11 0 -8 4 -18 10 -22 5 -4 -14
-8 -42 -8 -29 0 -53 5 -53 10 0 6 5 10 10 10 6 0 10 16 10 35 0 24 -5 35 -15
35 -17 0 -20 16 -5 25 6 3 10 17 10 30 0 16 -7 25 -25 29 -16 4 -22 11 -19 21
7 16 -35 18 -126 6z"/>
<path d="M3872 1208 c-6 -6 -12 -18 -12 -25 0 -8 -12 -13 -29 -13 -59 0 -79
-56 -42 -116 18 -29 23 -31 68 -29 63 3 58 1 71 29 9 19 8 27 -4 36 -17 15
-19 46 -2 56 16 10 -20 34 -40 26 -15 -5 -15 -3 -4 11 17 21 12 43 -6 25z"/>
<path d="M5346 950 c9 -9 571 -40 719 -40 157 0 1262 39 1280 45 6 2 -444 4
-999 4 -677 1 -1007 -2 -1000 -9z"/>
<path d="M1130 779 c-16 -23 -30 -45 -30 -49 0 -4 -25 -24 -55 -45 -105 -72
-141 -134 -91 -156 20 -9 30 -7 58 12 20 13 48 40 63 59 16 19 48 56 73 81 42
44 44 49 37 88 -4 22 -11 43 -16 46 -4 3 -22 -13 -39 -36z"/>
</g>
</svg>
